<mxfile modified="2024-05-23T04:10:39.750Z" host="app.diagrams.net" agent="Mozilla/5.0 (Windows NT 10.0; Win64; x64) AppleWebKit/537.36 (KHTML, like Gecko) Chrome/125.0.0.0 Safari/537.36" etag="6lexuYD13h8XUVaRoPJk" version="24.4.4" type="device">
  <diagram id="Ht1M8jgEwFfnCIfOTk4-" name="Page-1">
    <mxGraphModel dx="1050" dy="541" grid="0" gridSize="10" guides="1" tooltips="1" connect="1" arrows="1" fold="1" page="1" pageScale="1" pageWidth="1169" pageHeight="827" math="0" shadow="0">
      <root>
        <mxCell id="0" />
        <mxCell id="1" parent="0" />
        <mxCell id="UEzPUAAOIrF-is8g5C7q-107" value="" style="rounded=0;whiteSpace=wrap;html=1;labelBackgroundColor=none;fillColor=none;dashed=1;container=1;pointerEvents=0;collapsible=0;recursiveResize=0;" parent="1" vertex="1">
          <mxGeometry x="320" y="80" width="590" height="640" as="geometry" />
        </mxCell>
        <mxCell id="0xEF4nMzBO72SMRJ0_5v-4" value="" style="rounded=1;whiteSpace=wrap;html=1;" parent="UEzPUAAOIrF-is8g5C7q-107" vertex="1">
          <mxGeometry x="120" width="120" height="80" as="geometry" />
        </mxCell>
        <mxCell id="0xEF4nMzBO72SMRJ0_5v-6" value="" style="rounded=1;whiteSpace=wrap;html=1;" parent="UEzPUAAOIrF-is8g5C7q-107" vertex="1">
          <mxGeometry x="40" y="360" width="280" height="80" as="geometry" />
        </mxCell>
        <mxCell id="0xEF4nMzBO72SMRJ0_5v-5" value="" style="rounded=1;whiteSpace=wrap;html=1;" parent="UEzPUAAOIrF-is8g5C7q-107" vertex="1">
          <mxGeometry x="120" y="240" width="120" height="84" as="geometry" />
        </mxCell>
        <mxCell id="0xEF4nMzBO72SMRJ0_5v-8" value="" style="rounded=1;whiteSpace=wrap;html=1;" parent="UEzPUAAOIrF-is8g5C7q-107" vertex="1">
          <mxGeometry x="120" y="120" width="120" height="80" as="geometry" />
        </mxCell>
        <mxCell id="0xEF4nMzBO72SMRJ0_5v-9" value="" style="rounded=1;whiteSpace=wrap;html=1;" parent="UEzPUAAOIrF-is8g5C7q-107" vertex="1">
          <mxGeometry x="40" y="480" width="280" height="80" as="geometry" />
        </mxCell>
        <mxCell id="0xEF4nMzBO72SMRJ0_5v-10" value="" style="rounded=1;whiteSpace=wrap;html=1;" parent="UEzPUAAOIrF-is8g5C7q-107" vertex="1">
          <mxGeometry x="400" y="234" width="120" height="86" as="geometry" />
        </mxCell>
        <mxCell id="0xEF4nMzBO72SMRJ0_5v-18" value="" style="html=1;whiteSpace=wrap;shape=isoCube2;backgroundOutline=1;isoAngle=15;strokeWidth=3;" parent="UEzPUAAOIrF-is8g5C7q-107" vertex="1">
          <mxGeometry x="160" y="5" width="40" height="40" as="geometry" />
        </mxCell>
        <mxCell id="0xEF4nMzBO72SMRJ0_5v-19" value="" style="html=1;whiteSpace=wrap;shape=isoCube2;backgroundOutline=1;isoAngle=15;strokeWidth=3;" parent="UEzPUAAOIrF-is8g5C7q-107" vertex="1">
          <mxGeometry x="160" y="125" width="40" height="40" as="geometry" />
        </mxCell>
        <mxCell id="0xEF4nMzBO72SMRJ0_5v-20" value="" style="html=1;whiteSpace=wrap;shape=isoCube2;backgroundOutline=1;isoAngle=15;strokeWidth=3;" parent="UEzPUAAOIrF-is8g5C7q-107" vertex="1">
          <mxGeometry x="160" y="246" width="40" height="40" as="geometry" />
        </mxCell>
        <mxCell id="0xEF4nMzBO72SMRJ0_5v-21" value="" style="html=1;whiteSpace=wrap;shape=isoCube2;backgroundOutline=1;isoAngle=15;fontStyle=1;strokeWidth=3;" parent="UEzPUAAOIrF-is8g5C7q-107" vertex="1">
          <mxGeometry x="60" y="363" width="40" height="40" as="geometry" />
        </mxCell>
        <mxCell id="0xEF4nMzBO72SMRJ0_5v-23" value="" style="html=1;whiteSpace=wrap;shape=isoCube2;backgroundOutline=1;isoAngle=15;strokeWidth=3;" parent="UEzPUAAOIrF-is8g5C7q-107" vertex="1">
          <mxGeometry x="260" y="363" width="40" height="40" as="geometry" />
        </mxCell>
        <mxCell id="0xEF4nMzBO72SMRJ0_5v-22" value="" style="html=1;whiteSpace=wrap;shape=isoCube2;backgroundOutline=1;isoAngle=15;strokeWidth=3;" parent="UEzPUAAOIrF-is8g5C7q-107" vertex="1">
          <mxGeometry x="160" y="363" width="40" height="40" as="geometry" />
        </mxCell>
        <mxCell id="0xEF4nMzBO72SMRJ0_5v-25" value="" style="html=1;whiteSpace=wrap;shape=isoCube2;backgroundOutline=1;isoAngle=15;strokeWidth=3;" parent="UEzPUAAOIrF-is8g5C7q-107" vertex="1">
          <mxGeometry x="65" y="486" width="40" height="40" as="geometry" />
        </mxCell>
        <mxCell id="0xEF4nMzBO72SMRJ0_5v-26" value="" style="html=1;whiteSpace=wrap;shape=isoCube2;backgroundOutline=1;isoAngle=15;strokeWidth=3;" parent="UEzPUAAOIrF-is8g5C7q-107" vertex="1">
          <mxGeometry x="160" y="486" width="40" height="40" as="geometry" />
        </mxCell>
        <mxCell id="0xEF4nMzBO72SMRJ0_5v-27" value="" style="html=1;whiteSpace=wrap;shape=isoCube2;backgroundOutline=1;isoAngle=15;fontStyle=1;strokeWidth=3;" parent="UEzPUAAOIrF-is8g5C7q-107" vertex="1">
          <mxGeometry x="260" y="486" width="40" height="40" as="geometry" />
        </mxCell>
        <mxCell id="0xEF4nMzBO72SMRJ0_5v-29" value="" style="html=1;whiteSpace=wrap;shape=isoCube2;backgroundOutline=1;isoAngle=15;fontStyle=1;strokeWidth=3;" parent="UEzPUAAOIrF-is8g5C7q-107" vertex="1">
          <mxGeometry x="440" y="240" width="40" height="40" as="geometry" />
        </mxCell>
        <mxCell id="0xEF4nMzBO72SMRJ0_5v-30" value="Confluent KSqlDB 01" style="text;html=1;align=center;verticalAlign=middle;whiteSpace=wrap;rounded=0;fontStyle=1" parent="UEzPUAAOIrF-is8g5C7q-107" vertex="1">
          <mxGeometry x="140" y="45" width="80" height="30" as="geometry" />
        </mxCell>
        <mxCell id="0xEF4nMzBO72SMRJ0_5v-31" value="Confluent Schema Registry 01" style="text;html=1;align=center;verticalAlign=middle;whiteSpace=wrap;rounded=0;strokeWidth=1;fontStyle=1" parent="UEzPUAAOIrF-is8g5C7q-107" vertex="1">
          <mxGeometry x="125" y="165" width="110" height="30" as="geometry" />
        </mxCell>
        <mxCell id="0xEF4nMzBO72SMRJ0_5v-32" value="Confluent Kafka Connnect 01" style="text;html=1;align=center;verticalAlign=middle;whiteSpace=wrap;rounded=0;fontStyle=1" parent="UEzPUAAOIrF-is8g5C7q-107" vertex="1">
          <mxGeometry x="125" y="290" width="110" height="30" as="geometry" />
        </mxCell>
        <mxCell id="0xEF4nMzBO72SMRJ0_5v-33" value="Confluent Broker 01" style="text;html=1;align=center;verticalAlign=middle;whiteSpace=wrap;rounded=0;fontStyle=1" parent="UEzPUAAOIrF-is8g5C7q-107" vertex="1">
          <mxGeometry x="35" y="410" width="90" height="30" as="geometry" />
        </mxCell>
        <mxCell id="0xEF4nMzBO72SMRJ0_5v-39" value="Confluent Control center 01" style="text;html=1;align=center;verticalAlign=middle;whiteSpace=wrap;rounded=0;fontStyle=1" parent="UEzPUAAOIrF-is8g5C7q-107" vertex="1">
          <mxGeometry x="410" y="286" width="110" height="30" as="geometry" />
        </mxCell>
        <mxCell id="0xEF4nMzBO72SMRJ0_5v-41" value="Confluent Broker 02" style="text;html=1;align=center;verticalAlign=middle;whiteSpace=wrap;rounded=0;fontStyle=1" parent="UEzPUAAOIrF-is8g5C7q-107" vertex="1">
          <mxGeometry x="135" y="410" width="90" height="30" as="geometry" />
        </mxCell>
        <mxCell id="0xEF4nMzBO72SMRJ0_5v-42" value="Confluent Broker 03" style="text;html=1;align=center;verticalAlign=middle;whiteSpace=wrap;rounded=0;fontStyle=1" parent="UEzPUAAOIrF-is8g5C7q-107" vertex="1">
          <mxGeometry x="235" y="410" width="90" height="30" as="geometry" />
        </mxCell>
        <mxCell id="0xEF4nMzBO72SMRJ0_5v-43" value="Confluent Zookeeper 01" style="text;html=1;align=center;verticalAlign=middle;whiteSpace=wrap;rounded=0;fontStyle=1" parent="UEzPUAAOIrF-is8g5C7q-107" vertex="1">
          <mxGeometry x="45" y="530" width="80" height="30" as="geometry" />
        </mxCell>
        <mxCell id="0xEF4nMzBO72SMRJ0_5v-44" value="Confluent Zookeeper 02" style="text;html=1;align=center;verticalAlign=middle;whiteSpace=wrap;rounded=0;fontStyle=1" parent="UEzPUAAOIrF-is8g5C7q-107" vertex="1">
          <mxGeometry x="140" y="531" width="80" height="30" as="geometry" />
        </mxCell>
        <mxCell id="0xEF4nMzBO72SMRJ0_5v-47" value="Confluent Zookeeper 03" style="text;html=1;align=center;verticalAlign=middle;whiteSpace=wrap;rounded=0;fontStyle=1" parent="UEzPUAAOIrF-is8g5C7q-107" vertex="1">
          <mxGeometry x="237" y="531" width="80" height="30" as="geometry" />
        </mxCell>
        <mxCell id="0xEF4nMzBO72SMRJ0_5v-48" value="" style="rounded=1;whiteSpace=wrap;html=1;arcSize=27;" parent="UEzPUAAOIrF-is8g5C7q-107" vertex="1">
          <mxGeometry x="417" y="481" width="125" height="72" as="geometry" />
        </mxCell>
        <mxCell id="0xEF4nMzBO72SMRJ0_5v-50" value="Grafana" style="text;html=1;align=center;verticalAlign=middle;whiteSpace=wrap;rounded=0;fontStyle=1" parent="UEzPUAAOIrF-is8g5C7q-107" vertex="1">
          <mxGeometry x="434.5" y="526" width="90" height="30" as="geometry" />
        </mxCell>
        <mxCell id="0xEF4nMzBO72SMRJ0_5v-51" value="" style="endArrow=classic;html=1;rounded=0;exitX=0.5;exitY=0;exitDx=0;exitDy=0;entryX=0.421;entryY=0.063;entryDx=0;entryDy=0;entryPerimeter=0;" parent="UEzPUAAOIrF-is8g5C7q-107" edge="1">
          <mxGeometry relative="1" as="geometry">
            <mxPoint x="455.03" y="232" as="sourcePoint" />
            <mxPoint x="235.00000000000003" y="38.32000000000005" as="targetPoint" />
            <Array as="points">
              <mxPoint x="455.03" y="38" />
            </Array>
          </mxGeometry>
        </mxCell>
        <mxCell id="0xEF4nMzBO72SMRJ0_5v-52" value="8088" style="edgeLabel;resizable=0;html=1;;align=center;verticalAlign=middle;" parent="0xEF4nMzBO72SMRJ0_5v-51" connectable="0" vertex="1">
          <mxGeometry relative="1" as="geometry" />
        </mxCell>
        <mxCell id="0xEF4nMzBO72SMRJ0_5v-53" value="" style="endArrow=classic;html=1;rounded=0;entryX=1;entryY=0.5;entryDx=0;entryDy=0;exitX=0.25;exitY=0;exitDx=0;exitDy=0;" parent="UEzPUAAOIrF-is8g5C7q-107" source="0xEF4nMzBO72SMRJ0_5v-10" target="0xEF4nMzBO72SMRJ0_5v-8" edge="1">
          <mxGeometry relative="1" as="geometry">
            <mxPoint x="170" y="110" as="sourcePoint" />
            <mxPoint x="270" y="110" as="targetPoint" />
            <Array as="points">
              <mxPoint x="430" y="160" />
            </Array>
          </mxGeometry>
        </mxCell>
        <mxCell id="0xEF4nMzBO72SMRJ0_5v-54" value="8081" style="edgeLabel;resizable=0;html=1;;align=center;verticalAlign=middle;" parent="0xEF4nMzBO72SMRJ0_5v-53" connectable="0" vertex="1">
          <mxGeometry relative="1" as="geometry" />
        </mxCell>
        <mxCell id="0xEF4nMzBO72SMRJ0_5v-55" value="" style="endArrow=classic;html=1;rounded=0;exitX=0;exitY=0.535;exitDx=0;exitDy=0;exitPerimeter=0;" parent="UEzPUAAOIrF-is8g5C7q-107" source="0xEF4nMzBO72SMRJ0_5v-10" edge="1">
          <mxGeometry relative="1" as="geometry">
            <mxPoint x="190" y="300" as="sourcePoint" />
            <mxPoint x="240" y="280" as="targetPoint" />
          </mxGeometry>
        </mxCell>
        <mxCell id="0xEF4nMzBO72SMRJ0_5v-56" value="8083" style="edgeLabel;resizable=0;html=1;;align=center;verticalAlign=middle;" parent="0xEF4nMzBO72SMRJ0_5v-55" connectable="0" vertex="1">
          <mxGeometry relative="1" as="geometry" />
        </mxCell>
        <mxCell id="0xEF4nMzBO72SMRJ0_5v-57" value="" style="endArrow=classic;html=1;rounded=0;entryX=1;entryY=0.5;entryDx=0;entryDy=0;" parent="UEzPUAAOIrF-is8g5C7q-107" target="0xEF4nMzBO72SMRJ0_5v-6" edge="1">
          <mxGeometry relative="1" as="geometry">
            <mxPoint x="438" y="321" as="sourcePoint" />
            <mxPoint x="290" y="300" as="targetPoint" />
            <Array as="points">
              <mxPoint x="438" y="400" />
            </Array>
          </mxGeometry>
        </mxCell>
        <mxCell id="0xEF4nMzBO72SMRJ0_5v-58" value="9092" style="edgeLabel;resizable=0;html=1;;align=center;verticalAlign=middle;" parent="0xEF4nMzBO72SMRJ0_5v-57" connectable="0" vertex="1">
          <mxGeometry relative="1" as="geometry" />
        </mxCell>
        <mxCell id="0xEF4nMzBO72SMRJ0_5v-59" value="" style="endArrow=classic;html=1;rounded=0;entryX=1;entryY=0.5;entryDx=0;entryDy=0;exitX=0.5;exitY=1;exitDx=0;exitDy=0;" parent="UEzPUAAOIrF-is8g5C7q-107" source="0xEF4nMzBO72SMRJ0_5v-10" target="0xEF4nMzBO72SMRJ0_5v-9" edge="1">
          <mxGeometry relative="1" as="geometry">
            <mxPoint x="460" y="322" as="sourcePoint" />
            <mxPoint x="290" y="300" as="targetPoint" />
            <Array as="points">
              <mxPoint x="460" y="440" />
              <mxPoint x="360" y="440" />
              <mxPoint x="360" y="520" />
            </Array>
          </mxGeometry>
        </mxCell>
        <mxCell id="0xEF4nMzBO72SMRJ0_5v-61" value="" style="endArrow=classic;html=1;rounded=0;exitX=0.5;exitY=1;exitDx=0;exitDy=0;" parent="UEzPUAAOIrF-is8g5C7q-107" source="0xEF4nMzBO72SMRJ0_5v-5" edge="1">
          <mxGeometry relative="1" as="geometry">
            <mxPoint x="190" y="290" as="sourcePoint" />
            <mxPoint x="180" y="358" as="targetPoint" />
          </mxGeometry>
        </mxCell>
        <mxCell id="0xEF4nMzBO72SMRJ0_5v-62" value="9092" style="edgeLabel;resizable=0;html=1;;align=center;verticalAlign=middle;" parent="0xEF4nMzBO72SMRJ0_5v-61" connectable="0" vertex="1">
          <mxGeometry relative="1" as="geometry" />
        </mxCell>
        <mxCell id="0xEF4nMzBO72SMRJ0_5v-63" value="" style="endArrow=classic;html=1;rounded=0;entryX=0.5;entryY=1;entryDx=0;entryDy=0;exitX=0.5;exitY=0;exitDx=0;exitDy=0;" parent="UEzPUAAOIrF-is8g5C7q-107" source="0xEF4nMzBO72SMRJ0_5v-5" target="0xEF4nMzBO72SMRJ0_5v-8" edge="1">
          <mxGeometry relative="1" as="geometry">
            <mxPoint x="60" y="220" as="sourcePoint" />
            <mxPoint x="160" y="220" as="targetPoint" />
          </mxGeometry>
        </mxCell>
        <mxCell id="0xEF4nMzBO72SMRJ0_5v-64" value="8081" style="edgeLabel;resizable=0;html=1;;align=center;verticalAlign=middle;" parent="0xEF4nMzBO72SMRJ0_5v-63" connectable="0" vertex="1">
          <mxGeometry relative="1" as="geometry" />
        </mxCell>
        <mxCell id="0xEF4nMzBO72SMRJ0_5v-65" value="" style="endArrow=classic;html=1;rounded=0;exitX=0.5;exitY=1;exitDx=0;exitDy=0;" parent="UEzPUAAOIrF-is8g5C7q-107" edge="1">
          <mxGeometry relative="1" as="geometry">
            <mxPoint x="179.70999999999998" y="80" as="sourcePoint" />
            <mxPoint x="179.70999999999998" y="116" as="targetPoint" />
          </mxGeometry>
        </mxCell>
        <mxCell id="0xEF4nMzBO72SMRJ0_5v-66" value="8081" style="edgeLabel;resizable=0;html=1;;align=center;verticalAlign=middle;" parent="0xEF4nMzBO72SMRJ0_5v-65" connectable="0" vertex="1">
          <mxGeometry relative="1" as="geometry" />
        </mxCell>
        <mxCell id="0xEF4nMzBO72SMRJ0_5v-69" value="" style="endArrow=classic;html=1;rounded=0;exitX=0.5;exitY=1;exitDx=0;exitDy=0;" parent="UEzPUAAOIrF-is8g5C7q-107" edge="1">
          <mxGeometry relative="1" as="geometry">
            <mxPoint x="179.80000000000004" y="440" as="sourcePoint" />
            <mxPoint x="179.80000000000004" y="476" as="targetPoint" />
          </mxGeometry>
        </mxCell>
        <mxCell id="0xEF4nMzBO72SMRJ0_5v-70" value="2181" style="edgeLabel;resizable=0;html=1;;align=center;verticalAlign=middle;" parent="0xEF4nMzBO72SMRJ0_5v-69" connectable="0" vertex="1">
          <mxGeometry relative="1" as="geometry" />
        </mxCell>
        <mxCell id="0xEF4nMzBO72SMRJ0_5v-74" value="" style="endArrow=classic;html=1;rounded=0;" parent="UEzPUAAOIrF-is8g5C7q-107" source="0xEF4nMzBO72SMRJ0_5v-48" edge="1">
          <mxGeometry relative="1" as="geometry">
            <mxPoint x="480" y="475" as="sourcePoint" />
            <mxPoint x="320" y="418" as="targetPoint" />
            <Array as="points">
              <mxPoint x="480" y="418" />
            </Array>
          </mxGeometry>
        </mxCell>
        <mxCell id="0xEF4nMzBO72SMRJ0_5v-75" value="1234" style="edgeLabel;resizable=0;html=1;;align=center;verticalAlign=middle;" parent="0xEF4nMzBO72SMRJ0_5v-74" connectable="0" vertex="1">
          <mxGeometry relative="1" as="geometry" />
        </mxCell>
        <mxCell id="0xEF4nMzBO72SMRJ0_5v-49" value="" style="html=1;whiteSpace=wrap;shape=isoCube2;backgroundOutline=1;isoAngle=15;strokeWidth=3;" parent="UEzPUAAOIrF-is8g5C7q-107" vertex="1">
          <mxGeometry x="459.5" y="486" width="40" height="40" as="geometry" />
        </mxCell>
        <mxCell id="2JTPvP0PiSKsRFuAS13z-2" value="" style="endArrow=classic;html=1;rounded=0;exitX=0;exitY=0.5;exitDx=0;exitDy=0;" edge="1" parent="UEzPUAAOIrF-is8g5C7q-107" source="0xEF4nMzBO72SMRJ0_5v-4">
          <mxGeometry relative="1" as="geometry">
            <mxPoint x="141" y="267" as="sourcePoint" />
            <mxPoint x="80" y="359" as="targetPoint" />
            <Array as="points">
              <mxPoint x="80" y="40" />
            </Array>
          </mxGeometry>
        </mxCell>
        <mxCell id="2JTPvP0PiSKsRFuAS13z-3" value="9092" style="edgeLabel;resizable=0;html=1;;align=center;verticalAlign=middle;" connectable="0" vertex="1" parent="2JTPvP0PiSKsRFuAS13z-2">
          <mxGeometry relative="1" as="geometry" />
        </mxCell>
        <mxCell id="2JTPvP0PiSKsRFuAS13z-7" value="&lt;b style=&quot;font-size: 16px;&quot;&gt;CONFLUENT PLATFORM&lt;/b&gt;" style="text;html=1;align=center;verticalAlign=middle;whiteSpace=wrap;rounded=0;fontSize=16;" vertex="1" parent="UEzPUAAOIrF-is8g5C7q-107">
          <mxGeometry x="35" y="610" width="504" height="30" as="geometry" />
        </mxCell>
        <mxCell id="UEzPUAAOIrF-is8g5C7q-77" value="Bucket Object Storage&lt;div&gt;MinIO&lt;/div&gt;" style="outlineConnect=0;verticalLabelPosition=bottom;verticalAlign=top;align=center;html=1;fontSize=12;fontStyle=1;aspect=fixed;pointerEvents=1;shape=mxgraph.aws4.bucket_with_objects;labelBackgroundColor=#ffffff;fillColor=#000000;strokeWidth=3;" parent="1" vertex="1">
          <mxGeometry x="189" y="609" width="65.38" height="68" as="geometry" />
        </mxCell>
        <mxCell id="0xEF4nMzBO72SMRJ0_5v-94" value="" style="endArrow=classic;html=1;rounded=0;entryX=1;entryY=0.25;entryDx=0;entryDy=0;" parent="1" target="0xEF4nMzBO72SMRJ0_5v-6" edge="1">
          <mxGeometry relative="1" as="geometry">
            <mxPoint x="980" y="460" as="sourcePoint" />
            <mxPoint x="970" y="430" as="targetPoint" />
          </mxGeometry>
        </mxCell>
        <mxCell id="0xEF4nMzBO72SMRJ0_5v-95" value="9092" style="edgeLabel;resizable=0;html=1;;align=center;verticalAlign=middle;" parent="0xEF4nMzBO72SMRJ0_5v-94" connectable="0" vertex="1">
          <mxGeometry relative="1" as="geometry" />
        </mxCell>
        <mxCell id="0xEF4nMzBO72SMRJ0_5v-99" value="Consumer&amp;nbsp;&lt;div&gt;&lt;br&gt;&lt;/div&gt;" style="text;html=1;align=center;verticalAlign=middle;whiteSpace=wrap;rounded=0;fontStyle=1" parent="1" vertex="1">
          <mxGeometry x="949" y="494" width="119" height="41" as="geometry" />
        </mxCell>
        <mxCell id="0xEF4nMzBO72SMRJ0_5v-101" value="" style="endArrow=classic;html=1;rounded=0;exitX=0;exitY=0.5;exitDx=0;exitDy=0;" parent="1" source="0xEF4nMzBO72SMRJ0_5v-6" edge="1">
          <mxGeometry relative="1" as="geometry">
            <mxPoint x="610" y="600" as="sourcePoint" />
            <mxPoint x="220" y="608" as="targetPoint" />
            <Array as="points">
              <mxPoint x="220" y="480" />
            </Array>
          </mxGeometry>
        </mxCell>
        <mxCell id="0xEF4nMzBO72SMRJ0_5v-102" value="9001" style="edgeLabel;resizable=0;html=1;;align=center;verticalAlign=middle;" parent="0xEF4nMzBO72SMRJ0_5v-101" connectable="0" vertex="1">
          <mxGeometry relative="1" as="geometry" />
        </mxCell>
        <mxCell id="0xEF4nMzBO72SMRJ0_5v-106" value="" style="endArrow=classic;html=1;rounded=0;entryX=0;entryY=0.25;entryDx=0;entryDy=0;entryPerimeter=0;" parent="1" target="0xEF4nMzBO72SMRJ0_5v-6" edge="1">
          <mxGeometry relative="1" as="geometry">
            <mxPoint x="176" y="460" as="sourcePoint" />
            <mxPoint x="360" y="450" as="targetPoint" />
          </mxGeometry>
        </mxCell>
        <mxCell id="0xEF4nMzBO72SMRJ0_5v-107" value="9092" style="edgeLabel;resizable=0;html=1;;align=center;verticalAlign=middle;" parent="0xEF4nMzBO72SMRJ0_5v-106" connectable="0" vertex="1">
          <mxGeometry relative="1" as="geometry" />
        </mxCell>
        <mxCell id="2JTPvP0PiSKsRFuAS13z-4" value="" style="shape=cylinder3;whiteSpace=wrap;html=1;boundedLbl=1;backgroundOutline=1;size=15;strokeWidth=3;" vertex="1" parent="1">
          <mxGeometry x="119" y="425" width="55" height="71" as="geometry" />
        </mxCell>
        <mxCell id="2JTPvP0PiSKsRFuAS13z-5" value="" style="shape=cylinder3;whiteSpace=wrap;html=1;boundedLbl=1;backgroundOutline=1;size=15;strokeWidth=3;" vertex="1" parent="1">
          <mxGeometry x="981" y="423" width="55" height="71" as="geometry" />
        </mxCell>
        <mxCell id="2JTPvP0PiSKsRFuAS13z-6" value="Producer" style="text;html=1;align=center;verticalAlign=middle;whiteSpace=wrap;rounded=0;fontStyle=1" vertex="1" parent="1">
          <mxGeometry x="93" y="494" width="102" height="37" as="geometry" />
        </mxCell>
      </root>
    </mxGraphModel>
  </diagram>
</mxfile>
